<?xml version="1.0" standalone="no"?>
<!DOCTYPE svg PUBLIC "-//W3C//DTD SVG 20010904//EN"
 "http://www.w3.org/TR/2001/REC-SVG-20010904/DTD/svg10.dtd">
<svg version="1.0" xmlns="http://www.w3.org/2000/svg"
 width="400.000000pt" height="400.000000pt" viewBox="0 0 400.000000 400.000000"
 preserveAspectRatio="xMidYMid meet">
<metadata>
Created by potrace 1.14, written by Peter Selinger 2001-2017
</metadata>
<g transform="translate(0.000000,400.000000) scale(0.100000,-0.100000)"
fill="#000000" stroke="none">
<path d="M2184 3579 c-136 -27 -243 -69 -348 -138 -62 -40 -84 -59 -168 -144
-43 -43 -82 -76 -87 -72 -6 3 -36 -27 -68 -67 -31 -40 -71 -89 -88 -109 -16
-20 -37 -44 -45 -55 -63 -80 -142 -174 -151 -180 -7 -4 -9 10 -5 42 11 97 27
322 28 399 1 46 0 48 -39 40 -75 -14 -368 -87 -375 -93 -10 -10 -17 -103 -43
-532 -7 -108 -14 -215 -20 -295 -3 -38 -8 -101 -10 -140 -2 -38 -6 -99 -10
-135 -3 -36 -7 -96 -10 -135 -3 -38 -8 -101 -11 -139 -10 -107 -6 -108 224
-25 l171 61 5 36 c3 21 8 71 11 112 20 264 26 312 42 328 14 14 18 13 42 -14
14 -16 36 -43 48 -59 12 -17 49 -65 81 -107 l59 -77 -3 -258 c-2 -142 -5 -506
-8 -810 l-6 -552 156 152 c309 302 388 377 400 377 7 0 11 -12 9 -27 -1 -16
-5 -59 -9 -98 -27 -304 -33 -418 -22 -450 4 -13 16 -21 33 -23 27 -2 118 20
158 38 11 5 59 25 108 46 48 20 89 40 92 43 2 4 7 34 10 67 3 32 7 82 10 109
3 28 7 92 11 142 8 121 10 142 17 150 4 3 77 7 162 8 162 3 178 7 191 48 4 12
15 40 25 62 69 153 87 220 63 229 -9 4 -106 3 -216 0 l-200 -7 7 59 c7 57 9
61 89 142 l82 83 75 4 c41 3 116 7 168 9 51 3 95 7 97 9 13 13 114 293 110
304 -3 8 -24 13 -53 13 l-48 1 50 47 c56 52 155 174 155 190 0 6 3 12 8 14 9
4 57 102 77 158 65 182 68 413 8 595 -21 65 -64 154 -105 219 -197 307 -580
474 -934 405z m259 -424 c126 -21 271 -130 335 -251 118 -225 50 -504 -155
-640 -194 -128 -456 -106 -618 52 -198 193 -205 501 -15 694 83 85 178 135
280 147 25 3 46 6 48 8 4 3 79 -3 125 -10z"/>
<path d="M2255 2846 c-135 -69 -146 -250 -20 -338 127 -88 307 5 307 160 0
150 -155 245 -287 178z"/>
</g>
</svg>
